<mxfile host="app.diagrams.net" agent="Mozilla/5.0 (X11; Linux x86_64) AppleWebKit/537.36 (KHTML, like Gecko) Chrome/121.0.0.0 Safari/537.36" version="26.2.9">
  <diagram name="Страница — 1" id="J7lxYzx2S2qp6D2Xgss9">
    <mxGraphModel dx="1783" dy="610" grid="1" gridSize="10" guides="1" tooltips="1" connect="1" arrows="1" fold="1" page="1" pageScale="1" pageWidth="827" pageHeight="1169" math="0" shadow="0">
      <root>
        <mxCell id="0" />
        <mxCell id="1" parent="0" />
        <mxCell id="eWc6cuw9SGMg0PXMVcVg-9" style="edgeStyle=orthogonalEdgeStyle;rounded=0;orthogonalLoop=1;jettySize=auto;html=1;exitX=1;exitY=0.5;exitDx=0;exitDy=0;entryX=0.5;entryY=0;entryDx=0;entryDy=0;strokeColor=#FF3333;" edge="1" parent="1" source="eWc6cuw9SGMg0PXMVcVg-1" target="eWc6cuw9SGMg0PXMVcVg-6">
          <mxGeometry relative="1" as="geometry" />
        </mxCell>
        <mxCell id="eWc6cuw9SGMg0PXMVcVg-1" value="солнечная&lt;div&gt;паенль&lt;/div&gt;" style="rounded=0;whiteSpace=wrap;html=1;" vertex="1" parent="1">
          <mxGeometry x="40" y="240" width="120" height="60" as="geometry" />
        </mxCell>
        <mxCell id="eWc6cuw9SGMg0PXMVcVg-11" style="edgeStyle=orthogonalEdgeStyle;rounded=0;orthogonalLoop=1;jettySize=auto;html=1;exitX=0;exitY=0.5;exitDx=0;exitDy=0;entryX=1;entryY=0.5;entryDx=0;entryDy=0;strokeColor=#FF3333;" edge="1" parent="1" source="eWc6cuw9SGMg0PXMVcVg-2" target="eWc6cuw9SGMg0PXMVcVg-4">
          <mxGeometry relative="1" as="geometry" />
        </mxCell>
        <mxCell id="eWc6cuw9SGMg0PXMVcVg-12" style="edgeStyle=orthogonalEdgeStyle;rounded=0;orthogonalLoop=1;jettySize=auto;html=1;exitX=0.5;exitY=1;exitDx=0;exitDy=0;entryX=0.5;entryY=0;entryDx=0;entryDy=0;" edge="1" parent="1" source="eWc6cuw9SGMg0PXMVcVg-2" target="eWc6cuw9SGMg0PXMVcVg-7">
          <mxGeometry relative="1" as="geometry" />
        </mxCell>
        <mxCell id="eWc6cuw9SGMg0PXMVcVg-13" style="edgeStyle=orthogonalEdgeStyle;rounded=0;orthogonalLoop=1;jettySize=auto;html=1;exitX=0.25;exitY=1;exitDx=0;exitDy=0;entryX=0.5;entryY=0;entryDx=0;entryDy=0;strokeColor=#FF3333;" edge="1" parent="1" source="eWc6cuw9SGMg0PXMVcVg-2" target="eWc6cuw9SGMg0PXMVcVg-5">
          <mxGeometry relative="1" as="geometry">
            <Array as="points">
              <mxPoint x="350" y="580" />
              <mxPoint x="110" y="580" />
            </Array>
          </mxGeometry>
        </mxCell>
        <mxCell id="eWc6cuw9SGMg0PXMVcVg-14" style="edgeStyle=orthogonalEdgeStyle;rounded=0;orthogonalLoop=1;jettySize=auto;html=1;exitX=1;exitY=0.5;exitDx=0;exitDy=0;entryX=0.5;entryY=0;entryDx=0;entryDy=0;strokeColor=#FF3333;" edge="1" parent="1" source="eWc6cuw9SGMg0PXMVcVg-2" target="eWc6cuw9SGMg0PXMVcVg-8">
          <mxGeometry relative="1" as="geometry" />
        </mxCell>
        <mxCell id="eWc6cuw9SGMg0PXMVcVg-2" value="АКБ" style="rounded=0;whiteSpace=wrap;html=1;" vertex="1" parent="1">
          <mxGeometry x="320" y="450" width="120" height="60" as="geometry" />
        </mxCell>
        <mxCell id="eWc6cuw9SGMg0PXMVcVg-3" value="светофор" style="rounded=0;whiteSpace=wrap;html=1;" vertex="1" parent="1">
          <mxGeometry x="50" y="430" width="120" height="60" as="geometry" />
        </mxCell>
        <mxCell id="eWc6cuw9SGMg0PXMVcVg-4" value="контроллер светофора&lt;div&gt;(он есть?)&lt;/div&gt;" style="rounded=0;whiteSpace=wrap;html=1;" vertex="1" parent="1">
          <mxGeometry x="50" y="490" width="120" height="60" as="geometry" />
        </mxCell>
        <mxCell id="eWc6cuw9SGMg0PXMVcVg-5" value="светильник" style="rounded=0;whiteSpace=wrap;html=1;" vertex="1" parent="1">
          <mxGeometry x="50" y="610" width="120" height="60" as="geometry" />
        </mxCell>
        <mxCell id="eWc6cuw9SGMg0PXMVcVg-10" style="edgeStyle=orthogonalEdgeStyle;rounded=0;orthogonalLoop=1;jettySize=auto;html=1;exitX=0.5;exitY=1;exitDx=0;exitDy=0;entryX=0.5;entryY=0;entryDx=0;entryDy=0;strokeColor=#FF3333;" edge="1" parent="1" source="eWc6cuw9SGMg0PXMVcVg-6" target="eWc6cuw9SGMg0PXMVcVg-2">
          <mxGeometry relative="1" as="geometry" />
        </mxCell>
        <mxCell id="eWc6cuw9SGMg0PXMVcVg-6" value="MPPT&amp;nbsp;&lt;div&gt;(контроллер&lt;div&gt;панели)&lt;/div&gt;&lt;/div&gt;" style="rounded=0;whiteSpace=wrap;html=1;" vertex="1" parent="1">
          <mxGeometry x="320" y="320" width="120" height="60" as="geometry" />
        </mxCell>
        <mxCell id="eWc6cuw9SGMg0PXMVcVg-15" style="edgeStyle=orthogonalEdgeStyle;rounded=0;orthogonalLoop=1;jettySize=auto;html=1;exitX=1;exitY=0.5;exitDx=0;exitDy=0;entryX=0;entryY=0.5;entryDx=0;entryDy=0;shape=link;" edge="1" parent="1" source="eWc6cuw9SGMg0PXMVcVg-7" target="eWc6cuw9SGMg0PXMVcVg-8">
          <mxGeometry relative="1" as="geometry" />
        </mxCell>
        <mxCell id="eWc6cuw9SGMg0PXMVcVg-16" value="eth" style="edgeLabel;html=1;align=center;verticalAlign=middle;resizable=0;points=[];" vertex="1" connectable="0" parent="eWc6cuw9SGMg0PXMVcVg-15">
          <mxGeometry x="-0.22" y="3" relative="1" as="geometry">
            <mxPoint as="offset" />
          </mxGeometry>
        </mxCell>
        <mxCell id="eWc6cuw9SGMg0PXMVcVg-20" style="edgeStyle=orthogonalEdgeStyle;rounded=0;orthogonalLoop=1;jettySize=auto;html=1;exitX=0.5;exitY=1;exitDx=0;exitDy=0;entryX=1;entryY=0.25;entryDx=0;entryDy=0;strokeColor=#6600CC;strokeWidth=5;" edge="1" parent="1" source="eWc6cuw9SGMg0PXMVcVg-7" target="eWc6cuw9SGMg0PXMVcVg-6">
          <mxGeometry relative="1" as="geometry">
            <Array as="points">
              <mxPoint x="380" y="730" />
              <mxPoint x="770" y="730" />
              <mxPoint x="770" y="335" />
            </Array>
          </mxGeometry>
        </mxCell>
        <mxCell id="eWc6cuw9SGMg0PXMVcVg-21" value="Протокол?&lt;div&gt;Modbus&lt;/div&gt;" style="edgeLabel;html=1;align=center;verticalAlign=middle;resizable=0;points=[];" vertex="1" connectable="0" parent="eWc6cuw9SGMg0PXMVcVg-20">
          <mxGeometry x="0.7872" y="-4" relative="1" as="geometry">
            <mxPoint as="offset" />
          </mxGeometry>
        </mxCell>
        <mxCell id="eWc6cuw9SGMg0PXMVcVg-23" style="edgeStyle=orthogonalEdgeStyle;rounded=0;orthogonalLoop=1;jettySize=auto;html=1;exitX=0.25;exitY=1;exitDx=0;exitDy=0;entryX=0;entryY=0.5;entryDx=0;entryDy=0;" edge="1" parent="1" source="eWc6cuw9SGMg0PXMVcVg-7" target="eWc6cuw9SGMg0PXMVcVg-4">
          <mxGeometry relative="1" as="geometry">
            <Array as="points">
              <mxPoint x="350" y="730" />
              <mxPoint x="-10" y="730" />
              <mxPoint x="-10" y="520" />
            </Array>
          </mxGeometry>
        </mxCell>
        <mxCell id="eWc6cuw9SGMg0PXMVcVg-24" value="Протокол?" style="edgeLabel;html=1;align=center;verticalAlign=middle;resizable=0;points=[];" vertex="1" connectable="0" parent="eWc6cuw9SGMg0PXMVcVg-23">
          <mxGeometry x="-0.2885" y="3" relative="1" as="geometry">
            <mxPoint as="offset" />
          </mxGeometry>
        </mxCell>
        <mxCell id="eWc6cuw9SGMg0PXMVcVg-7" value="Repka Pi" style="rounded=0;whiteSpace=wrap;html=1;" vertex="1" parent="1">
          <mxGeometry x="320" y="610" width="120" height="60" as="geometry" />
        </mxCell>
        <mxCell id="eWc6cuw9SGMg0PXMVcVg-8" value="4G роутер" style="rounded=0;whiteSpace=wrap;html=1;" vertex="1" parent="1">
          <mxGeometry x="540" y="610" width="120" height="60" as="geometry" />
        </mxCell>
        <mxCell id="eWc6cuw9SGMg0PXMVcVg-17" value="" style="endArrow=classic;html=1;rounded=0;strokeColor=#FF3333;" edge="1" parent="1">
          <mxGeometry width="50" height="50" relative="1" as="geometry">
            <mxPoint x="590" y="70" as="sourcePoint" />
            <mxPoint x="680" y="70" as="targetPoint" />
          </mxGeometry>
        </mxCell>
        <mxCell id="eWc6cuw9SGMg0PXMVcVg-18" value="POWER" style="edgeLabel;html=1;align=center;verticalAlign=middle;resizable=0;points=[];" vertex="1" connectable="0" parent="eWc6cuw9SGMg0PXMVcVg-17">
          <mxGeometry x="-0.5333" y="1" relative="1" as="geometry">
            <mxPoint as="offset" />
          </mxGeometry>
        </mxCell>
      </root>
    </mxGraphModel>
  </diagram>
</mxfile>
